Coordinates
version=1
nRows=17
nColumns=36
inDegrees=yes

Units are S.I. units (second, meters, Newtons, ...)
If the header above contains a line with 'inDegrees', this indicates whether rotational values are in degrees (yes) or radians (no).

endheader
time	pelvis_tilt	pelvis_list	pelvis_rotation	pelvis_tx	pelvis_ty	pelvis_tz	hip_flexion_r	hip_adduction_r	hip_rotation_r	knee_angle_r	knee_angle_r_beta	ankle_angle_r	subtalar_angle_r	mtp_angle_r	hip_flexion_l	hip_adduction_l	hip_rotation_l	knee_angle_l	knee_angle_l_beta	ankle_angle_l	subtalar_angle_l	mtp_angle_l	lumbar_extension	lumbar_bending	lumbar_rotation	arm_flex_r	arm_add_r	arm_rot_r	elbow_flex_r	pro_sup_r	arm_flex_l	arm_add_l	arm_rot_l	elbow_flex_l	pro_sup_l
      0.91000000	    -11.70511838	     -0.26715552	     -1.24882709	     -0.45922150	      1.07637161	     -0.58659803	     30.30127398	     -1.32695568	     -4.61246414	      5.15967603	      0.09005334	    -26.09147501	     -1.29055865	     -6.86749708	     30.98851096	     -6.73260743	     -8.28027192	     10.66688108	      0.18617220	    -30.71976868	      0.37665668	     -6.86749708	    -18.00635726	     -4.65118714	     -4.16643107	    -26.69274064	    -35.23445095	    -28.99909459	    130.86811047	     99.33409787	    -21.35992095	    -32.08025209	    -14.71176655	    130.02968937	    108.02959637
      0.92000000	    -11.85900011	     -0.40525808	     -0.78866229	     -0.44944246	      1.05167680	     -0.58699629	     31.41289110	     -1.41223177	     -4.57291664	      6.75932275	      0.11797244	    -26.33664055	     -2.57329020	     -7.02619426	     32.18953169	     -6.79754253	     -7.00889821	     13.00486598	      0.22697773	    -31.78190765	     -0.90023929	     -7.02619426	    -18.04912809	     -4.28216830	     -2.51239837	    -32.47176330	    -32.90614305	    -35.01894439	    133.86315909	    100.47430518	    -18.60413360	    -34.06921841	    -13.11642641	    129.74211959	    110.23632085
      0.93000000	    -11.87920470	     -0.47209804	     -0.32505033	     -0.43953874	      1.02619324	     -0.58720208	     32.54064983	     -1.60576815	     -4.67549433	      8.85673296	      0.15457915	    -26.72300553	     -2.49355420	     -7.07286722	     33.40392843	     -6.86297358	     -6.25761310	     15.61820831	      0.27258916	    -32.96804174	     -0.63892401	     -7.07286722	    -18.29039890	     -4.12321101	     -3.10144599	    -34.40444468	    -31.97471929	    -36.52645248	    135.72589105	     98.97437634	    -19.15740096	    -35.04443579	    -14.45932989	    131.34015278	    108.15254179
      0.94000000	    -11.87634851	     -0.50850906	      0.18401453	     -0.42984118	      0.99985881	     -0.58758349	     33.81157556	     -1.85815508	     -4.58437158	     11.41687587	      0.19926207	    -27.22342896	     -2.41434667	     -7.14971691	     34.63185745	     -6.71720002	     -5.08085657	     18.46550996	      0.32228395	    -33.24584388	     -1.32582359	     -7.14971691	    -18.37065386	     -3.83834207	     -2.18899532	    -37.85039760	    -29.59713587	    -39.86233777	    137.92688033	    100.47897258	    -16.45330091	    -36.70733802	    -12.72594150	    130.91457009	    109.68439810
      0.95000000	    -11.96662454	     -0.48679508	      0.83517489	     -0.42068012	      0.97275809	     -0.58819325	     35.31628444	     -2.17933682	     -4.24745545	     15.07716368	      0.26314615	    -23.04335744	     -2.99384920	     -7.22386982	     36.09215955	     -6.28164275	     -3.58109101	     22.74971587	      0.39705745	    -27.33833754	     -3.05409431	     -7.22386982	    -18.30017547	     -3.72866417	     -1.76194457	    -39.92232565	    -27.32371918	    -41.71905347	    139.62972023	    100.74881017	    -13.52086293	    -38.08852248	    -10.71176842	    130.63858031	    109.17639381
      0.96000000	    -12.12313707	     -0.61110329	      1.43150261	     -0.41227472	      0.94487297	     -0.58864371	     36.94007725	     -2.14716381	     -3.37065831	     20.16104600	      0.35187663	    -11.69066903	     -5.44563722	     -7.29753053	     37.93061531	     -5.97878196	     -2.24419003	     29.10003384	      0.50789140	    -13.41640624	     -4.96619750	     -7.29753053	    -18.08185271	     -3.52389161	     -0.96355541	    -41.53417979	    -24.96449094	    -43.12220082	    141.14392831	    101.06346478	     -9.11406462	    -39.25872842	     -7.35771028	    129.71002891	    108.94514937
      0.97000000	    -12.28906778	     -0.94047145	      1.73197696	     -0.40537421	      0.91699619	     -0.58871994	     39.30159788	     -1.79389480	     -2.65473009	     26.82879989	      0.46825089	      1.77151307	     -7.87827403	     -7.33029990	     40.15765860	     -6.14146030	     -1.46202883	     36.15878666	      0.63108988	      2.13165505	     -5.27815462	     -7.33029990	    -18.07188788	     -3.26115449	     -0.84346158	    -41.08647850	    -23.90540612	    -42.34726361	    142.23692517	     99.31101684	     -5.64571076	    -39.73461642	     -5.13077901	    129.43394377	    106.66520272
      0.98000000	    -12.59439924	     -1.22147808	      1.84530484	     -0.40201712	      0.89034084	     -0.58898704	     43.94604754	     -1.73391446	     -2.28439346	     36.14288628	      0.63081237	     10.03201558	     -9.48421021	     -7.36744285	     43.00900193	     -6.15793294	     -0.30914298	     42.55102868	      0.74265555	     12.05332154	     -6.30370801	     -7.36744285	    -18.19278286	     -2.96180230	      1.39067266	    -41.63903519	    -21.43350560	    -43.83715165	    143.42080832	    100.97667508	      3.03090995	    -39.64185930	      1.58773766	    126.23891632	    108.64845162
      0.99000000	    -13.56928993	     -1.14404280	      2.28602031	     -0.40113882	      0.86522243	     -0.58939541	     51.00587464	     -2.30162666	     -1.56681383	     47.14616844	      0.82285587	     12.32126545	    -10.95623578	     -7.38834444	     47.20013520	     -5.33162301	      1.41824025	     48.65956600	      0.84926964	     16.65055484	     -8.14101828	     -7.38834444	    -18.02621105	     -3.31530538	      1.45781716	    -38.94610267	    -20.46636213	    -42.00782136	    143.42428635	    101.11770446	      9.16709418	    -38.89529435	      5.34148767	    124.16892547	    108.77677054
      1.00000000	    -15.03347807	     -1.24006979	      2.98644612	     -0.39992543	      0.84193018	     -0.58960430	     57.95253062	     -2.59359151	     -0.48583095	     56.51363869	      0.98634907	     12.56563258	    -12.36797588	     -7.39034426	     52.56068752	     -4.20441308	      3.65365891	     55.44013374	      0.96761287	     18.51345485	     -9.97377289	     -7.39034426	    -17.49289162	     -3.63452886	      0.11039383	    -34.40850063	    -20.27603534	    -38.10824105	    142.33319588	    101.30372705	     13.18210837	    -37.97930093	      6.95126996	    122.70476763	    108.74785739
      1.01000000	    -16.38025912	     -1.73319539	      3.12927463	     -0.39683398	      0.82139068	     -0.58897058	     62.82960926	     -2.10213318	      0.15148819	     62.74311629	      1.09507396	     13.92717889	    -12.82994478	     -7.40562362	     57.79976427	     -4.02114727	      5.05667008	     62.32281691	      1.08773835	     19.67391138	    -10.45487982	     -7.40562362	    -17.02209323	     -3.68881191	     -1.58770636	    -28.37818807	    -20.66784412	    -32.60786684	    139.98510297	    102.88193024	     15.38474310	    -36.90345558	      6.93874620	    121.38871000	    110.59270138
      1.02000000	    -16.87116062	     -2.28340214	      2.63235698	     -0.39323547	      0.80475077	     -0.58783871	     65.21986426	     -1.18992983	      0.25550136	     66.42724783	      1.15937419	     15.85456624	    -13.50814946	     -7.40703574	     61.36040445	     -4.65318349	      5.70601961	     67.98621269	      1.18658326	     20.60452402	    -10.78035116	     -7.40703574	    -17.81334424	     -3.61966862	     -1.91607695	    -22.84164310	    -20.55512527	    -28.20886691	    137.75110890	    103.04156267	     19.12440449	    -35.17126786	      8.28620251	    119.19943352	    110.48499968
      1.03000000	    -16.66147169	     -2.66347661	      2.03209605	     -0.39003347	      0.79201045	     -0.58667883	     65.96264879	     -0.30626818	      0.25203951	     68.62509004	      1.19773377	     18.05819803	    -13.94497880	     -7.40886700	     63.13324760	     -5.42050772	      6.01841289	     71.94854047	      1.25573892	     21.97510901	    -10.47574423	     -7.40886700	    -19.77534965	     -3.62782928	     -2.22706325	    -16.71396235	    -20.37482936	    -23.61017706	    135.19628281	    103.30065239	     23.09402238	    -33.39713993	      9.41305941	    116.85172009	    110.40354358
      1.04000000	    -16.53389993	     -2.91322850	      1.73469172	     -0.38733417	      0.78095103	     -0.58619017	     66.56230400	      0.27359864	      0.29419694	     70.38931203	      1.22852525	     19.76810311	    -14.71950515	     -7.40998615	     64.32888786	     -5.73661513	      6.33593133	     74.72869695	      1.30426181	     23.09453054	    -10.76415518	     -7.40998615	    -21.80903823	     -3.58884923	     -2.34770637	    -11.10970403	    -19.79596759	    -19.91625953	    132.73334787	    103.39426171	     27.40666903	    -31.01858633	     10.54793592	    114.05794762	    110.16780766
      1.05000000	    -16.76132187	     -2.91103962	      2.05071650	     -0.38473752	      0.76982573	     -0.58712065	     67.84523071	     -0.00214218	      0.24590985	     72.76084321	      1.26991628	     21.11016389	    -15.33364294	     -7.41088696	     65.73493778	     -5.08934870	      6.78554464	     77.14684008	      1.34646637	     24.01239136	    -11.21421737	     -7.41088696	    -23.40706671	     -3.62771331	     -2.77685862	     -6.21971228	    -19.18443876	    -16.75267008	    130.45094944	    103.40227175	     31.66384997	    -28.50780246	     12.05338105	    111.50380588	    109.96786884
      1.06000000	    -17.19807019	     -2.64188618	      2.43395075	     -0.38235495	      0.75930419	     -0.58834329	     69.60083028	     -0.59283328	      0.43008201	     75.41830381	      1.31629772	     23.20862004	    -14.12308873	     -7.41527600	     67.26028101	     -4.10273630	      7.11847845	     79.35810783	      1.38506027	     24.62542440	    -11.67977984	     -7.41527600	    -24.59768578	     -3.98775772	     -3.40828076	     -1.27671721	    -18.88953088	    -13.41117888	    127.86058845	    103.58836488	     35.81171778	    -26.39343917	     14.30413677	    109.09212810	    110.28673842
      1.07000000	    -17.75352018	     -2.68141285	      2.64675285	     -0.38015015	      0.74964527	     -0.58927301	     71.44833321	     -0.94290158	      0.25410381	     77.80718004	      1.35799147	     23.70380525	    -14.22817292	     -7.41626224	     69.11418138	     -3.49137508	      7.62047147	     81.70805549	      1.42607459	     24.61171724	    -12.06097008	     -7.41626224	    -25.50974072	     -4.01897513	     -3.70904066	      3.52756740	    -18.87906693	    -10.27943809	    125.57020977	    103.62112834	     39.41681669	    -24.16609823	     16.21946531	    106.88744406	    110.30914579
